<svg id="Layer_1" data-name="Layer 1" xmlns="http://www.w3.org/2000/svg" viewBox="0 0 662.78 176.96"><defs><style>.cls-1{fill:#201f41;}.cls-2,.cls-4{fill:none;}.cls-2{stroke:#cfcdcc;stroke-miterlimit:10;stroke-width:2.78px;}.cls-3{fill:#cfcdcc;}</style></defs><path class="cls-1" d="M232.87,106.83v.83H218.05v-.83h.51a3.18,3.18,0,0,0,3-4.2l-3.5-10.49H202.4l-3.69,10.49a3.18,3.18,0,0,0,3,4.2h2.48v.83H189.36v-.83h1.52a6.64,6.64,0,0,0,6.3-4.51l13.93-40.78,14.06,40.78a6.65,6.65,0,0,0,6.3,4.51Zm-15.27-16-7.25-21.69L202.78,90.8Z"/><path class="cls-1" d="M250.3,63.83h-2.23a3.49,3.49,0,0,0-3.5,3.5v36a3.49,3.49,0,0,0,3.5,3.5h3.37c4.46,0,9.35-.82,9.35-9.28h.83v10.11H235.28v-.83h2.29a3.53,3.53,0,0,0,3.5-3.5v-36a3.53,3.53,0,0,0-3.5-3.5h-2.29V63h15Z"/><path class="cls-1" d="M317.73,103.14a4,4,0,0,0,3.94,3.63h2v.89H308.57v-.89h2.54a3.11,3.11,0,0,0,3.12-3.37l-3.06-34.67-17.81,40.58L275.3,69.94l-2.87,33.46a3.11,3.11,0,0,0,3.12,3.37h2.55v.89H263.85v-.89h2.67a4,4,0,0,0,4-3.63l3.88-43.45,19.72,42.75,19.65-44.78Z"/><path class="cls-1" d="M368.17,106.83v.83H353.35v-.83h.51a3.18,3.18,0,0,0,3-4.2l-3.5-10.49H337.7L334,102.63a3.18,3.18,0,0,0,3,4.2h2.48v.83H324.66v-.83h1.52a6.64,6.64,0,0,0,6.3-4.51l13.93-40.78,14.06,40.78a6.65,6.65,0,0,0,6.3,4.51Zm-15.27-16-7.25-21.69L338.08,90.8Z"/><path class="cls-1" d="M372.24,72.48c0-4.52,2.1-9.6,11.13-9.6,2.23,0,4.58.82,6.05.82a1.46,1.46,0,0,0,1.4-.57h.69V73.24h-.69c0-6.74-3-9.54-8.08-9.54s-7.83,2.93-7.83,7.76c0,11,20.1,9.61,20.1,23.8,0,6.29-3.56,12.78-12.91,12.78-3.63,0-7.19-1.72-9-1.72a1,1,0,0,0-1.14.83h-.77V96.46H372c0,5.73,3.62,10.63,10.81,10.63s9.22-4.9,9.22-10.63C392,83.68,372.24,84.89,372.24,72.48Z"/><path class="cls-1" d="M425.61,85.4A22.59,22.59,0,1,1,448.19,108,22.59,22.59,0,0,1,425.61,85.4Zm3.88-2c-1.14,11.64,6.36,21.89,16.73,23s19.59-7.45,20.68-19-6.37-21.89-16.73-23S430.57,71.85,429.49,83.42Z"/><path class="cls-1" d="M506.91,63h13.61v.83h-2.35a3.53,3.53,0,0,0-3.5,3.5V109.5L480.76,68.73v34.54a3.49,3.49,0,0,0,3.5,3.5h2.54v.89H473.19v-.89h2.16a3.49,3.49,0,0,0,3.5-3.5V60.46l33.91,40.84v-34a3.53,3.53,0,0,0-3.5-3.5h-2.35Z"/><path class="cls-1" d="M538.84,63.83h-2.23a3.48,3.48,0,0,0-3.49,3.5v36a3.48,3.48,0,0,0,3.49,3.5H540c4.45,0,9.35-.82,9.35-9.28h.82v10.11H523.83v-.83h2.29a3.53,3.53,0,0,0,3.5-3.5v-36a3.53,3.53,0,0,0-3.5-3.5h-2.29V63h15Z"/><path class="cls-1" d="M568.74,63.83h-2.23a3.53,3.53,0,0,0-3.5,3.5v36a3.53,3.53,0,0,0,3.5,3.5h2.23v.83H553.85v-.83H556a3.48,3.48,0,0,0,3.5-3.5v-36a3.48,3.48,0,0,0-3.5-3.5h-2.16V63h14.89Z"/><path class="cls-1" d="M605.76,63h13.61v.83H617a3.53,3.53,0,0,0-3.5,3.5V109.5L579.61,68.73v34.54a3.49,3.49,0,0,0,3.5,3.5h2.55v.89H572v-.89h2.17a3.49,3.49,0,0,0,3.5-3.5V60.46l33.9,40.84v-34a3.53,3.53,0,0,0-3.5-3.5h-2.35Z"/><path class="cls-1" d="M648.89,97.55v10.11H622.68v-.83h2.16a3.53,3.53,0,0,0,3.5-3.5v-36a3.53,3.53,0,0,0-3.5-3.5h-2.16V63h24.81V73.12h-.83c0-8.53-3.31-9.29-7.82-9.29h-3.5a3.49,3.49,0,0,0-3.5,3.5V80.5h8.65A3.49,3.49,0,0,0,644,77V75.92h.76v10.3H644V85.14a3.53,3.53,0,0,0-3.5-3.5h-8.65v21.69a3.49,3.49,0,0,0,3.5,3.5h3.37c4.45,0,9.35-.82,9.35-9.28Z"/><circle class="cls-2" cx="85.92" cy="90.16" r="78.26"/><path class="cls-3" d="M86.19,56.22c-.18.4-.34.8-.5,1.19a34.81,34.81,0,0,0-8.07-12.36,28.43,28.43,0,0,0-2,7.51c4.05,5.27,6.22,12.12,6.49,20.48h6.8a38.94,38.94,0,0,1,3.21-14.19,32.18,32.18,0,0,1,4-6.75,27.68,27.68,0,0,0-2.08-7.4,37.07,37.07,0,0,0-7.87,11.52Z"/><path class="cls-3" d="M114.18,41.11a33.53,33.53,0,0,1,1.69,12c0,.39-.06.76-.1,1.14a27.74,27.74,0,0,1-1.62,7.31A30,30,0,0,1,106,73.33l4.33,7.29A37.3,37.3,0,0,1,116,79.44a31.1,31.1,0,0,1,8,0,27.55,27.55,0,0,0,5.24-5.58,37.2,37.2,0,0,0-14-.87l-.13,0a34.27,34.27,0,0,0,7.29-19.53,1.69,1.69,0,0,1,0-.23A39,39,0,0,0,119.13,36l-1.06-2.19-2.4.4a41.8,41.8,0,0,0-16.42,6.3,34,34,0,0,1,2.41,6.23,33.63,33.63,0,0,1,12.53-5.6Z"/><path class="cls-3" d="M57,41.49a33.31,33.31,0,0,1,11.32,4.43c.62.39,1.21.8,1.78,1.22a35.33,35.33,0,0,1,2.31-6.31l-.63-.41a38.89,38.89,0,0,0-16.84-5.76l-2.44-.15-.81,2.3A41.83,41.83,0,0,0,49.11,54a35.2,35.2,0,0,1,6.61,1A33.43,33.43,0,0,1,57,41.49Z"/><path class="cls-3" d="M85.65,124.11c.18-.4.34-.8.5-1.21a34.85,34.85,0,0,0,8.06,12.38,28.46,28.46,0,0,0,2-7.5,31.86,31.86,0,0,1-6-14.91l-3.76,3.63-4-3.9a34.8,34.8,0,0,1-6.69,15.64,27.14,27.14,0,0,0,2.07,7.39,37.18,37.18,0,0,0,7.87-11.52Z"/><path class="cls-3" d="M149.23,87a41.62,41.62,0,0,0-13.77-10.84,34.51,34.51,0,0,1-4.11,5.26,33.3,33.3,0,0,1,11.17,7.86,33.21,33.21,0,0,1-9.47,7.62c-.58.31-1.18.6-1.76.86a27.68,27.68,0,0,1-7.41,2.16,32.4,32.4,0,0,1-17.42-2.7l-5.29,5.09c3.39,2.31,9.73,7.46,13,15.63a28.14,28.14,0,0,0,7.41,1.77A37.27,37.27,0,0,0,115.38,107c-.19-.24-.37-.49-.56-.72a36.85,36.85,0,0,0,5.12.37,34.46,34.46,0,0,0,15.65-3.79l.51-.26a38.93,38.93,0,0,0,13.38-11.75l1.33-2L149.23,87Z"/><path class="cls-3" d="M29.31,91.05a33.43,33.43,0,0,1,9.48-7.62c.58-.31,1.17-.59,1.77-.86A27.55,27.55,0,0,1,48,80.41a30.54,30.54,0,0,1,13.95,1.4l4.37-7.34a36.19,36.19,0,0,1-4.61-5.07,31.93,31.93,0,0,1-4-7,27.15,27.15,0,0,0-7.42-1.75A37.06,37.06,0,0,0,56.45,73.3c.19.26.39.5.59.75a34.14,34.14,0,0,0-20.79,3.38l-.51.26A39,39,0,0,0,22.36,89.44l-1.33,2,1.58,1.86a41.73,41.73,0,0,0,13.76,10.84,34.18,34.18,0,0,1,4.12-5.27A33.44,33.44,0,0,1,29.31,91Z"/><path class="cls-3" d="M57.64,139.22A32.15,32.15,0,0,1,56,126a27.88,27.88,0,0,1,1.69-7.34c2-5.33,6-10.86,13.36-15.73l.86-.44-5-4.8a38.39,38.39,0,0,1-11.12,3.16,31.1,31.1,0,0,1-7.89,0,28.08,28.08,0,0,0-5.29,5.57,36.39,36.39,0,0,0,9.18,1.17,38.27,38.27,0,0,0,4.8-.3h.11a34.45,34.45,0,0,0-7.27,19.53,1.62,1.62,0,0,1,0,.22,39.08,39.08,0,0,0,3.24,17.29l1.06,2.19,2.4-.41a41.74,41.74,0,0,0,16.42-6.3,34,34,0,0,1-2.41-6.23,33.57,33.57,0,0,1-12.54,5.61Z"/><path class="cls-3" d="M114.84,138.83a33.31,33.31,0,0,1-11.32-4.43c-.62-.39-1.2-.79-1.77-1.22a35.89,35.89,0,0,1-2.32,6.31l.63.41a39.14,39.14,0,0,0,16.84,5.77l2.44.14.81-2.3a41.81,41.81,0,0,0,2.57-17.23,35.3,35.3,0,0,1-6.62-1,33.43,33.43,0,0,1-1.26,13.51Z"/><path class="cls-1" d="M86,146.79a32.35,32.35,0,0,1-8.23-11.15,27.34,27.34,0,0,1-2.07-7.39c-.72-5.3,0-11.58,3.41-18.81l3.28,3.16,4,3.9,3.76-3.62,3.24-3.12a39,39,0,0,1,2.78,10.63,32.1,32.1,0,0,1,0,7.4,28.46,28.46,0,0,1-2,7.5,33.32,33.32,0,0,1-8.2,11.5ZM66.68,87.63l4.46-7.5h30.59l4.46,7.5-19.76,19-19.75-19ZM85.82,33.54a32.23,32.23,0,0,1,8.24,11.15,27.78,27.78,0,0,1,2.07,7.4c.75,5.52,0,12.11-3.85,19.72-.31.47-.57.88-.78,1.22h-12A39,39,0,0,1,75.6,59.94a32,32,0,0,1,0-7.39,28.15,28.15,0,0,1,2-7.51,33.32,33.32,0,0,1,8.2-11.5ZM135.21,118a32.11,32.11,0,0,1-13.6,1.69,28.32,28.32,0,0,1-7.41-1.77c-5.24-2.06-10.68-6-15.51-13.24l2.48-2.39,5.29-5.09,3.4-3.28a13.91,13.91,0,0,1,1.84.29h0a36.93,36.93,0,0,1,5.56,1.89,31.94,31.94,0,0,1,6.59,3.8,27.43,27.43,0,0,0,7.41-2.16,37.36,37.36,0,0,0-11.43-7.61c-.33-.14-.65-.28-1-.4a34.25,34.25,0,0,0,16.57-13.59l.16-.25a39,39,0,0,0,5.73-16.86l.14-2.44-2.3-.81a42,42,0,0,0-16.82-2.55,1.85,1.85,0,0,1,0,.23,34.77,34.77,0,0,1-.91,6.36,33.64,33.64,0,0,1,13.07,1.29,33.31,33.31,0,0,1-4.4,11.33c-.3.48-.61,1-.93,1.4a27.57,27.57,0,0,1-5.24,5.58,30,30,0,0,1-11.11,5.49l-2.56-4.3-4.33-7.29-.18-.3H99.35a34.76,34.76,0,0,1,14.79-11.43,28.24,28.24,0,0,0,1.63-7.31,37.17,37.17,0,0,0-13.07,6.36l-.14.11a34.65,34.65,0,0,0-.91-14.06,35.49,35.49,0,0,0-2.41-6.23,3.18,3.18,0,0,1-.16-.32A38.88,38.88,0,0,0,87.52,26.62l-2-1.36-1.88,1.56a41.59,41.59,0,0,0-11.22,14,35.24,35.24,0,0,0-2.31,6.3,37.14,37.14,0,0,0-.94,13.51c0,.37.08.74.14,1.1A34.66,34.66,0,0,0,55.72,55a35.2,35.2,0,0,0-6.61-1h-.19a39.17,39.17,0,0,0-17.48,3.37L29.26,58.5l.43,2.4a41.46,41.46,0,0,0,6.56,16.54A34.6,34.6,0,0,1,42.47,75a33.51,33.51,0,0,1-5.85-12.66,33.58,33.58,0,0,1,12-1.79c.53,0,1.05.06,1.57.11a27.81,27.81,0,0,1,7.42,1.75A31.77,31.77,0,0,1,71.24,73H67.12l-.86,1.45L61.9,81.81l-2.45,4.12a38,38,0,0,1-4.91-1.71,32.31,32.31,0,0,1-6.6-3.81,27.57,27.57,0,0,0-7.39,2.17A37.2,37.2,0,0,0,52,90.19c.32.14.63.26,1,.39a34.5,34.5,0,0,0-16.56,13.6c0,.09-.11.17-.16.25a39.07,39.07,0,0,0-5.72,16.86l-.14,2.44,2.29.81a43.18,43.18,0,0,0,14.47,2.63c.8,0,1.59,0,2.36-.08v-.23a34.57,34.57,0,0,1,.91-6.34,34,34,0,0,1-13.08-1.31,32.18,32.18,0,0,1,5.35-12.73,28.09,28.09,0,0,1,5.29-5.57,32.11,32.11,0,0,1,15.64-6.43L67,97.73l5,4.8,2.27,2.18-.3.56a38.92,38.92,0,0,1-8.69,9.21,31.52,31.52,0,0,1-7.5,4.22A28,28,0,0,0,56,126a37,37,0,0,0,13.09-6.37l.15-.11a34.42,34.42,0,0,0,.91,14.05,33.82,33.82,0,0,0,2.41,6.24l.15.32A39.22,39.22,0,0,0,84.3,153.71l2,1.36,1.88-1.56a41.51,41.51,0,0,0,11.23-14,35.05,35.05,0,0,0,2.31-6.31,37.09,37.09,0,0,0,.94-13.5c0-.37-.09-.74-.14-1.1a34.69,34.69,0,0,0,13.56,6.75,35.3,35.3,0,0,0,6.62,1h.19c.52,0,1,0,1.52,0a38.86,38.86,0,0,0,16-3.4l2.18-1.09-.43-2.4a41.66,41.66,0,0,0-6.55-16.54,34.71,34.71,0,0,1-6.23,2.47A33.44,33.44,0,0,1,135.21,118Z"/><path class="cls-3" d="M72.4,40.83a7.05,7.05,0,0,0-2.31,6.31,20.51,20.51,0,0,1,5.54,5.41l2-7.51a25.46,25.46,0,0,0-5.22-4.21"/><path class="cls-3" d="M94.21,135.28l2-7.5c.91,1.65,3.11,3.51,5.54,5.4a6.53,6.53,0,0,1-2.31,6.31,24.27,24.27,0,0,1-5.22-4.21Z"/><rect class="cls-4" x="0.6" y="-6.24" width="644.93" height="186.48"/></svg>